# AST/ASF file generated using VICON BodyLanguage
# -----------------------------------------------
:version 1.10
:name VICON
:units
  mass 1.0
  length 0.45
  angle deg
:documentation
   .ast/.asf automatically generated from VICON data using
   VICON BodyBuilder and BodyLanguage model FoxedUp or BRILLIANT.MOD
:root
   order TX TY TZ RX RY RZ
   axis XYZ
   position 0 0 0  
   orientation 0 0 0 
:bonedata
  begin
     id 1 
     name lhipjoint
     direction 0.662698 -0.695252 0.27831 
     length 2.53073 
     axis 0 0 0  XYZ
  end
  begin
     id 2 
     name lfemur
     direction 0.34202 -0.939693 0  
     length 7.16147  
     axis 0 0 20  XYZ
    dof rx ry rz
    limits (-160.0 20.0)
           (-70.0 70.0)
           (-60.0 70.0)
  end
  begin
     id 3 
     name ltibia
     direction 0.34202 -0.939693 0   
     length 7.63967   
     axis 0 0 20   XYZ
    dof rx
    limits (-10.0 170.0)
  end
  begin
     id 4 
     name lfoot
     direction 0.0938457 -0.257721 0.961651   
     length 1.89793   
     axis -90 7.62852e-016 20   XYZ
    dof rx rz
    limits (-45.0 90.0)
           (-70.0 20.0)
  end
  begin
     id 5 
     name ltoes
     direction -0.00116841 -0.0030592 0.999995   
     length 0.955649   
     axis -90 7.62852e-016 20   XYZ
    dof rx
    limits (-90.0 20.0)
  end
  begin
     id 6 
     name rhipjoint
     direction -0.649445 -0.705948 0.282592   
     length 2.49238  
     axis 0 0 0  XYZ 
  end
  begin
     id 7 
     name rfemur
     direction -0.34202 -0.939693 0   
     length 6.90728   
     axis 0 0 -20   XYZ
    dof rx ry rz
    limits (-160.0 20.0)
           (-70.0 70.0)
           (-70.0 60.0)
  end
  begin
     id 8 
     name rtibia
     direction -0.34202 -0.939693 0   
     length 7.72868   
     axis 0 0 -20   XYZ
    dof rx
    limits (-10.0 170.0)
 end
 begin
     id 9 
     name rfoot
     direction -0.0920068 -0.252865 0.963117   
     length 1.97476  
     axis -90 -7.62852e-016 -20   XYZ
    dof rx rz
    limits (-45.0 90.0)
           (-20.0 70.0)
  end
  begin
     id 10 
     name rtoes
     direction 0.000391322 0.00230649 0.999997   
     length 0.992641   
     axis -90 -7.62852e-016 -20   XYZ
    dof rx
    limits (-90.0 20.0)
  end
  begin
     id 11 
     name lowerback
     direction -0.00875327 0.998321 -0.0572635   
     length 2.20024   
     axis 0 0 0   XYZ
    dof rx ry rz
    limits (-20.0 45.0)
           (-30.0 30.0)
           (-30.0 30.0)
  end
  begin
     id 12 
     name upperback
     direction 0.00753931 0.999972 -0.000360425   
     length 2.20538   
     axis 0 0 0   XYZ
    dof rx ry rz
    limits (-20.0 45.0)
           (-30.0 30.0)
           (-30.0 30.0)
  end
  begin
     id 13 
     name thorax
     direction 0.0117767 0.999601 0.0256663   
     length 2.21508   
     axis 0 0 0   XYZ
    dof rx ry rz
    limits (-20.0 45.0)
           (-30.0 30.0)
           (-30.0 30.0)
  end
  begin
     id 14 
     name lowerneck
     direction 0.060228 0.994909 0.0807986   
     length 1.7607   
     axis 0 0 0   XYZ
    dof rx ry rz
    limits (-20.0 45.0)
           (-30.0 30.0)
           (-30.0 30.0)
  end
  begin
     id 15 
     name upperneck
     direction -0.0563647 0.959594 -0.275685   
     length 1.75612   
     axis 0 0 0   XYZ
    dof rx ry rz
    limits (-20.0 45.0)
           (-30.0 30.0)
           (-30.0 30.0)
  end
  begin
     id 16
     name head
     direction -0.0161544 0.99458 -0.102714  
     length 1.79288  
     axis 0 0 0   XYZ
    dof rx ry rz
    limits (-20.0 45.0)
           (-30.0 30.0)
           (-30.0 30.0)
  end
  begin
     id 17 
     name lclavicle
     direction 0.93913 0.332189 -0.087669  
     length 3.52087  
     axis 0 0 0   XYZ
    dof ry rz
    limits (-20.0 10.0)
           (0.0 20.0)
  end
  begin
     id 18 
     name lhumerus
     direction 1 -4.48974e-011 -2.70836e-027   
     length 5.35289   
     axis -180 -30 -90   XYZ
    dof rx ry rz
    limits (-60.0 90.0)
           (-90.0 90.0)
           (-90.0 90.0)
  end
  begin
     id 19
     name lradius
     direction 1 -4.48961e-011 -9.76021e-027   
     length 3.27727   
     axis -180 -30 -90   XYZ
    dof rx
    limits (-10.0 170.0)
  end
  begin
     id 20
     name lwrist
     direction 1 -4.49103e-011 -2.23668e-026   
     length 1.63864   
     axis 1.44924e-014 90 90   XYZ
    dof ry
    limits (-180.0 0.0)
 end
  begin
     id 21 
     name lhand
     direction 1 3.0697e-005 0.000161777   
     length 0.54443   
     axis 2.85318e-014 90 90   XYZ
    dof rx rz
    limits (-90.0 90.0)
           (-45.0 45.0)
  end
  begin
     id 22 
     name lfingers
     direction 1 -4.49027e-011 -8.9447e-026   
     length 0.438912   
     axis 5.70628e-014 90 90   XYZ
    dof rx
    limits (0.0 90.0)
  end
  begin
     id 23
     name lthumb
     direction 0.707058 2.6516e-005 0.707156   
     length 0.630274   
     axis -90 45 -3.53137e-014   XYZ
    dof rx rz
    limits (-45.0 45.0)
           (-45.0 45.0)
  end
  begin
     id 24 
     name rclavicle
     direction -0.95274 0.284984 -0.105215   
     length 3.43401  
     axis 0 0 0   XYZ 
    dof ry rz
    limits (-10.0 20.0)
           (-20.0 0.0)
  end
  begin
     id 25 
     name rhumerus
     direction -0.999999 -0.000575019 -0.00106829  
     length 5.52077   
     axis -180 30 90   XYZ
    dof rx ry rz
    limits (-90.0 60.0)
           (-90.0 90.0)
           (-90.0 90.0)
  end
  begin
     id 26 
     name rradius
     direction -1 -4.4879e-011 -6.35415e-027   
     length 3.32364   
     axis -180 30 90   XYZ
    dof rx
    limits (-10.0 170.0)
  end
  begin
     id 27 
     name rwrist
     direction -1 -4.49048e-011 -9.98542e-027   
     length 1.66182   
     axis 6.32482e-015 -90 -90   XYZ
    dof ry
    limits (-180.0 0.0)
  end
  begin
     id 28
     name rhand
     direction -1 -4.48978e-011 -1.99771e-026   
     length 0.732235   
     axis 1.27479e-014 -90 -90   XYZ
    dof rx rz
    limits (-90.0 90.0)
           (-45.0 45.0)
  end
  begin
     id 29
     name rfingers
     direction -1 -4.49144e-011 -3.99245e-026   
     length 0.590347   
     axis 2.5496e-014 -90 -90   XYZ
    dof rx
    limits (0.0 90.0)
  end
  begin
     id 30
     name rthumb
     direction -0.707107 -6.35121e-011 0.707107   
     length 0.847624   
     axis -90 -45 -2.82974e-014   XYZ
    dof rx rz
    limits (-45.0 45.0)
           (-45.0 45.0)
  end
:hierarchy
  begin
    root lhipjoint rhipjoint lowerback
    lhipjoint lfemur
    lfemur ltibia
    ltibia lfoot
    lfoot ltoes
    rhipjoint rfemur
    rfemur rtibia
    rtibia rfoot
    rfoot rtoes
    lowerback upperback
    upperback thorax
    thorax lowerneck lclavicle rclavicle
    lowerneck upperneck
    upperneck head
    lclavicle lhumerus
    lhumerus lradius
    lradius lwrist
    lwrist lhand lthumb
    lhand lfingers
    rclavicle rhumerus
    rhumerus rradius
    rradius rwrist
    rwrist rhand rthumb
    rhand rfingers
  end

#!OML:ASF G:\Work\Work\Patient Classification 1\Elijah\terrain1\Elijah.ASF
:FULLY-SPECIFIED
:DEGREES
299
root 16.049 21.9894 18.2587 9.07542 -2.41467 -0.52634
lowerback 6.25675 0.932843 -3.73673
upperback -1.27993 0.804656 -2.92061
thorax -4.85532 0.460598 -1.01825
lowerneck -18.2938 11.1612 12.228
upperneck 12.4901 15.6265 -18.7504
head 9.54273 6.3151 -6.09509
rclavicle 1.27222e-014 -3.18055e-015
rhumerus -43.6079 5.03039 -91.1687
rradius 50.0855
rwrist -5.34153
rhand -14.8601 21.9978
rfingers 7.12502
rthumb 11.2997 -7.67784
lclavicle 1.27222e-014 -3.18055e-015
lhumerus -32.0406 6.73665 75.9966
lradius 41.9344
lwrist 7.83872
lhand -20.0368 25.6222
lfingers 7.12502
lthumb 6.30431 55.5084
rfemur -26.4241 -5.62212 20.5229
rtibia 76.3879
rfoot 15.9205 1.27044
rtoes -11.9341
lfemur -28.8773 -3.72635 -22.0809
ltibia 42.864
lfoot -16.6962 -7.78967
ltoes -8.34186
300
root 16.0602 22.0284 18.3573 8.79923 -2.16381 -0.236933
lowerback 6.57503 0.788632 -3.92008
upperback -1.34808 0.573547 -2.93955
thorax -5.10712 0.354276 -0.917857
lowerneck -18.2938 11.1612 12.228
upperneck 12.4901 15.6265 -18.7504
head 9.54273 6.3151 -6.09509
rclavicle -1.64991e-014 -6.36111e-015
rhumerus -43.7753 4.86942 -90.9162
rradius 50.0316
rwrist -6.17955
rhand -14.8743 21.7836
rfingers 7.12502
rthumb 11.286 -7.89273
lclavicle -1.64991e-014 -6.36111e-015
lhumerus -32.1593 6.36167 76.1338
lradius 42.7078
lwrist 8.32874
lhand -20.0164 24.9382
lfingers 7.12502
lthumb 6.32395 54.8238
rfemur -27.649 -6.60504 20.2771
rtibia 78.5043
rfoot 15.2634 1.42551
rtoes -10.8173
lfemur -27.8214 -3.94053 -22.4484
ltibia 42.2279
lfoot -16.2408 -8.01633
ltoes -8.0186
301
root 16.0567 22.0617 18.4512 8.61259 -2.04191 -0.0983602
lowerback 6.5849 0.672829 -4.18223
upperback -1.25986 0.403199 -2.88744
thorax -5.02083 0.276986 -0.697035
lowerneck -18.2938 11.1612 12.228
upperneck 12.4901 15.6265 -18.7504
head 9.54273 6.3151 -6.09509
rclavicle -1.25234e-014 2.54444e-014
rhumerus -43.5732 4.94458 -90.7125
rradius 49.9455
rwrist -7.09302
rhand -14.545 21.1317
rfingers 7.12502
rthumb 11.6036 -8.52708
lclavicle -1.25234e-014 2.54444e-014
lhumerus -31.9982 6.21847 76.2301
lradius 43.3959
lwrist 8.65907
lhand -19.9267 24.5814
lfingers 7.12502
lthumb 6.41058 54.4644
rfemur -29.0651 -7.33835 20.3392
rtibia 80.6013
rfoot 14.6701 1.28921
rtoes -10.86
lfemur -27.0175 -4.01075 -22.5961
ltibia 41.6403
lfoot -15.7323 -8.15208
ltoes -7.11502
302
root 16.0437 22.0965 18.5402 8.44312 -2.21335 -0.0127785
lowerback 6.47889 0.708267 -4.51265
upperback -1.14816 0.438294 -2.82785
thorax -4.84828 0.301327 -0.451007
lowerneck -18.2938 11.1612 12.228
upperneck 12.4901 15.6265 -18.7504
head 9.54273 6.3151 -6.09509
rclavicle -4.17448e-015 2.22639e-014
rhumerus -43.4759 4.73809 -90.4344
rradius 49.5923
rwrist -6.69542
rhand -15.0833 21.6191
rfingers 7.12502
rthumb 11.0845 -8.06815
lclavicle -4.17448e-015 2.22639e-014
lhumerus -31.7927 6.14298 76.3668
lradius 44.2366
lwrist 8.796
lhand -19.9816 24.6864
lfingers 7.12502
lthumb 6.35761 54.571
rfemur -30.6699 -7.66925 20.5339
rtibia 82.5721
rfoot 14.3483 1.10667
rtoes -11.31
lfemur -26.2758 -3.87158 -22.6482
ltibia 40.8926
lfoot -15.1426 -8.16773
ltoes -6.82873
303
root 16.0315 22.1303 18.625 8.31826 -2.50564 0.467291
lowerback 7.2263 0.710479 -5.39472
upperback -1.33996 0.300901 -2.77875
thorax -5.47939 0.27263 0.0947953
lowerneck -18.2938 11.1612 12.228
upperneck 12.4901 15.6265 -18.7504
head 9.54273 6.3151 -6.09509
rclavicle -1.51076e-014 1.98785e-014
rhumerus -43.6212 4.74197 -90.1359
rradius 49.6585
rwrist -6.43573
rhand -15.0075 21.3339
rfingers 7.12502
rthumb 11.1575 -8.34943
lclavicle -1.51076e-014 1.98785e-014
lhumerus -31.7484 6.34698 76.4612
lradius 44.8889
lwrist 9.02531
lhand -19.9831 25.8035
lfingers 7.12502
lthumb 6.35612 55.6881
rfemur -32.4628 -8.03597 20.2902
rtibia 84.5366
rfoot 14.1217 1.21281
rtoes -11.1702
lfemur -25.6708 -3.79596 -23.114
ltibia 40.3529
lfoot -14.6251 -8.2319
ltoes -6.57939
304
root 16.081 22.1858 18.8009 7.81547 -1.66393 1.52357
lowerback 7.2823 0.366847 -5.65842
upperback -1.44242 -0.208106 -3.08643
thorax -5.59994 0.0289142 -0.0204821
lowerneck -18.2938 11.1612 12.228
upperneck 12.4901 15.6265 -18.7504
head 9.54273 6.3151 -6.09509
rclavicle -5.36719e-015 2.54444e-014
rhumerus -44.4442 4.56322 -89.8316
rradius 49.7316
rwrist -6.4793
rhand -14.7571 20.955
rfingers 7.12502
rthumb 11.399 -8.71514
lclavicle -5.36719e-015 2.54444e-014
lhumerus -32.1284 6.01084 76.5776
lradius 45.189
lwrist 9.38605
lhand -19.8251 26.5175
lfingers 7.12502
lthumb 6.50864 56.3975
rfemur -32.3706 -10.2265 18.6511
rtibia 85.9366
rfoot 12.9463 2.39942
rtoes -10.8475
lfemur -23.848 -4.56654 -24.5473
ltibia 39.5385
lfoot -14.5673 -8.51072
ltoes -6.48955
305
root 16.0397 22.2143 18.8925 7.77276 -2.25565 0.347409
lowerback 6.77755 0.624326 -5.05542
upperback -1.3004 0.256799 -2.71351
thorax -5.17767 0.235833 -0.0152332
lowerneck -18.2938 11.1612 12.228
upperneck 12.4901 15.6265 -18.7504
head 9.54273 6.3151 -6.09509
rclavicle -3.97569e-016 -6.36111e-015
rhumerus -44.2181 4.15332 -89.5148
rradius 49.4976
rwrist -6.59287
rhand -14.456 20.5996
rfingers 7.12502
rthumb 11.6894 -9.0543
lclavicle -3.97569e-016 -6.36111e-015
lhumerus -31.5462 5.48601 76.7689
lradius 45.4668
lwrist 9.72153
lhand -19.7532 26.1383
lfingers 7.12502
lthumb 6.57804 56.0161
rfemur -34.1037 -9.49506 20.6068
rtibia 87.4302
rfoot 12.7291 1.38353
rtoes -11.4958
lfemur -23.3069 -3.79158 -23.1064
ltibia 38.9601
lfoot -14.1987 -8.55474
ltoes -8.3882
306
root 16.0656 22.2466 18.9883 7.60783 -1.61128 1.23347
lowerback 6.61481 0.371615 -5.4335
upperback -1.0812 -0.101065 -2.99983
thorax -4.84355 0.0570899 -0.0590372
lowerneck -18.2938 11.1612 12.228
upperneck 12.4901 15.6265 -18.7504
head 9.54273 6.3151 -6.09509
rclavicle -7.95139e-016 1.59028e-015
rhumerus -43.919 3.95241 -89.2435
rradius 49.2158
rwrist -6.51627
rhand -14.1946 20.2214
rfingers 7.12502
rthumb 11.9414 -9.41798
lclavicle -7.95139e-016 1.59028e-015
lhumerus -31.0944 5.13151 76.9546
lradius 45.9656
lwrist 9.997
lhand -19.7307 26.1525
lfingers 7.12502
lthumb 6.59983 56.0297
rfemur -35.2066 -11.1858 19.5189
rtibia 88.8558
rfoot 12.2318 1.99522
rtoes -14.2667
lfemur -22.2841 -4.32073 -24.2001
ltibia 38.1786
lfoot -13.812 -8.67953
ltoes -9.63445
